<?xml version="1.0" encoding="UTF-8"?><svg id="Layer_1" xmlns="http://www.w3.org/2000/svg" viewBox="0 0 1920 1183.19"><defs><style>.cls-1{fill:#fcf0ca;stroke-width:0px;}</style></defs><path class="cls-1" d="m254.73,973.56c0,23.72-4.36,41.98-13.06,54.83-8.72,12.84-20.19,22.22-34.44,28.14-14.25,5.94-30.48,9.39-48.69,10.38-18.22,1-36.81,1.48-55.81,1.48H26.73V44.38h76c23.75,0,45.02.5,63.83,1.48,18.8,1,34.73,4.45,47.8,10.38s23.05,15.3,29.98,28.14c6.92,12.84,10.39,31.11,10.39,54.8v322.34c0,18.97-4.75,33.58-14.25,43.84-9.5,10.28-23.75,17.98-42.75,23.11,19,4.34,33.25,11.66,42.75,21.94s14.25,24.89,14.25,43.84v379.3ZM102.73,499.38h57c4.75,0,8.41-1.08,10.98-3.25,2.56-2.17,4.45-5.03,5.64-8.59,1.19-3.55,1.88-7.59,2.08-12.14.19-4.53.3-9.17.3-13.92V139.29c0-9.47-1.3-16.78-3.86-21.91-2.58-5.12-6.83-8.88-12.77-11.25s-13.77-3.75-23.45-4.16c-9.7-.39-21.67-.59-35.92-.59v398Zm76,94.92c0-4.73-.11-9.38-.3-13.92-.2-4.53-.89-8.58-2.08-12.14s-3.08-6.42-5.64-8.59c-2.58-2.17-6.23-3.27-10.98-3.27h-57v455c14.25,0,26.22-.19,35.92-.59,9.69-.39,17.52-1.77,23.45-4.14s10.19-6.12,12.77-11.27c2.56-5.12,3.86-12.44,3.86-21.92v-379.16Z"/><path class="cls-1" d="m500.23,101.38h-94v379h75v57h-75v531h-76V44.38h170v57Z"/><path class="cls-1" d="m766.86,1068.38h-76l-9.5-246h-56.41l-10.09,246h-76L595.86,44.38h114l57,1024Zm-95-530.67l-19-455.33-19,455.33-8.91,227.67h56.41l-9.5-227.67Z"/><path class="cls-1" d="m945.13,138.98c0-25.23,5.12-46.23,15.41-63s23.12-29.39,38.53-37.88c15.41-8.47,32.2-12.72,50.39-12.72s34.98,4.25,50.42,12.75,28.3,21.14,38.59,37.94c10.28,16.8,15.44,37.84,15.44,63.12,0,11.86-.11,21.14-.3,27.86-.2,6.72-.89,14.03-2.08,21.94s-2.97,18.19-5.34,30.83c-2.38,12.66-5.73,30.72-10.08,54.22s-9.78,54.02-16.3,91.55c-6.53,37.53-14.33,85.42-23.42,143.67-9.09,58.27-19.86,128.47-32.31,210.62s-26.78,179.33-42.97,291.5h132.8v57h-208c16.89-118.91,31.81-222.41,44.78-310.5s24.16-163.94,33.59-227.55c9.42-63.59,17.28-116.44,23.56-158.52,6.28-42.06,11.39-76.33,15.33-102.8,3.92-26.47,6.86-46.81,8.83-61.03s3.44-25.27,4.42-33.17,1.48-14.03,1.48-18.38v-17.19c0-18.95-2.97-33.17-8.89-42.66-5.94-9.47-12.45-14.22-19.56-14.22s-13.64,4.73-19.56,14.19c-5.94,9.47-8.89,23.66-8.89,42.56v170.25h-75.88v-170.41Z"/><path class="cls-1" d="m1400.51,973.6c0,18.97-2.97,35.56-8.91,49.78s-13.86,26.08-23.75,35.56c-9.91,9.47-21.08,16.58-33.55,21.33-12.47,4.73-25.23,7.11-38.3,7.11s-25.83-2.38-38.3-7.11c-12.47-4.75-23.66-11.86-33.55-21.33-9.91-9.48-17.81-21.34-23.75-35.56s-8.91-30.81-8.91-49.78V139.17c0-18.95,2.97-35.55,8.91-49.77s13.84-26.08,23.75-35.56c9.89-9.48,21.08-16.59,33.55-21.34,12.47-4.73,25.23-7.11,38.3-7.11s25.83,2.38,38.3,7.11c12.47,4.75,23.64,11.86,33.55,21.34,9.89,9.48,17.81,21.34,23.75,35.56s8.91,30.81,8.91,49.77v834.44Zm-76-837.27c0-14.31-2.97-25.05-8.91-32.2s-12.47-10.75-19.59-10.75-13.66,3.59-19.59,10.75-8.91,17.89-8.91,32.2v840.09c0,14.31,2.97,25.06,8.91,32.22s12.47,10.73,19.59,10.73,13.66-3.58,19.59-10.73,8.91-17.91,8.91-32.22V136.34Z"/><path class="cls-1" d="m1438.33,138.98c0-25.23,5.12-46.23,15.41-63s23.12-29.39,38.53-37.88c15.41-8.47,32.2-12.72,50.39-12.72s34.98,4.25,50.42,12.75,28.3,21.14,38.59,37.94c10.28,16.8,15.44,37.84,15.44,63.12,0,11.86-.11,21.14-.3,27.86-.2,6.72-.89,14.03-2.08,21.94s-2.97,18.19-5.34,30.83c-2.38,12.66-5.73,30.72-10.08,54.22s-9.78,54.02-16.3,91.55c-6.53,37.53-14.33,85.42-23.42,143.67-9.09,58.27-19.86,128.47-32.31,210.62s-26.78,179.33-42.97,291.5h132.8v57h-208c16.89-118.91,31.81-222.41,44.78-310.5s24.16-163.94,33.59-227.55c9.42-63.59,17.28-116.44,23.56-158.52,6.28-42.06,11.39-76.33,15.33-102.8,3.92-26.47,6.86-46.81,8.83-61.03s3.44-25.27,4.42-33.17,1.48-14.03,1.48-18.38v-17.19c0-18.95-2.97-33.17-8.89-42.66-5.94-9.47-12.45-14.22-19.56-14.22s-13.64,4.73-19.56,14.19c-5.94,9.47-8.89,23.66-8.89,42.56v170.25h-75.88v-170.41Z"/><path class="cls-1" d="m1892.71,402.38v666h-76v-211h-132l38-813h76l-38,745h56v-387h76Z"/><path class="cls-1" d="m937.21,1139.23h44.99c.33,0,.59.27.59.59v3.01c0,.33-.27.59-.59.59h-44.99v-4.19h0Z" transform="translate(-181.33 2101.33) rotate(-90)"/><path class="cls-1" d="m941.51,1144.65v4.98c0,.2.08.38.22.52l18.28,18.28,2.96-2.96-21-21c-.17-.17-.46-.05-.46.19Z"/><path class="cls-1" d="m978.49,1144.65v4.98c0,.2-.08.38-.22.52l-18.28,18.28-2.96-2.96,21-21c.17-.17.46-.05.46.19Z"/><path class="cls-1" d="m849.27,1139.23h44.99c.33,0,.59.27.59.59v3.01c0,.33-.27.59-.59.59h-44.99v-4.19h0Z" transform="translate(-269.27 2013.38) rotate(-90)"/><path class="cls-1" d="m853.56,1144.65v4.98c0,.2.08.38.22.52l18.28,18.28,2.96-2.96-21-21c-.17-.17-.46-.05-.46.19Z"/><path class="cls-1" d="m890.55,1144.65v4.98c0,.2-.08.38-.22.52l-18.28,18.28-2.96-2.96,21-21c.17-.17.46-.05.46.19Z"/><path class="cls-1" d="m1025.15,1139.23h44.99c.33,0,.59.27.59.59v3.01c0,.33-.27.59-.59.59h-44.99v-4.19h0Z" transform="translate(-93.38 2189.27) rotate(-90)"/><path class="cls-1" d="m1029.45,1144.65v4.98c0,.2.08.38.22.52l18.28,18.28,2.96-2.96-21-21c-.17-.17-.46-.05-.46.19Z"/><path class="cls-1" d="m1066.44,1144.65v4.98c0,.2-.08.38-.22.52l-18.28,18.28-2.96-2.96,21-21c.17-.17.46-.05.46.19Z"/></svg>