<?xml version="1.0" encoding="UTF-8"?><svg id="Layer_1" xmlns="http://www.w3.org/2000/svg" viewBox="0 0 1920 1118.54"><defs><style>.cls-1{fill:#fcf0ca;stroke-width:0px;}</style></defs><path class="cls-1" d="m939.09,1070.75h41.23c.33,0,.59.27.59.59v3.01c0,.33-.27.59-.59.59h-41.23v-4.19h0Z" transform="translate(-112.84 2032.84) rotate(-90)"/><path class="cls-1" d="m941.51,1074.29v4.98c0,.2.08.38.22.52l18.28,18.28,2.96-2.96-21-21c-.17-.17-.46-.05-.46.19Z"/><path class="cls-1" d="m978.49,1074.29v4.98c0,.2-.08.38-.22.52l-18.28,18.28-2.96-2.96,21-21c.17-.17.46-.05.46.19Z"/><path class="cls-1" d="m851.14,1070.75h41.23c.33,0,.59.27.59.59v3.01c0,.33-.27.59-.59.59h-41.23v-4.19h0Z" transform="translate(-200.79 1944.9) rotate(-90)"/><path class="cls-1" d="m853.56,1074.29v4.98c0,.2.08.38.22.52l18.28,18.28,2.96-2.96-21-21c-.17-.17-.46-.05-.46.19Z"/><path class="cls-1" d="m890.55,1074.29v4.98c0,.2-.08.38-.22.52l-18.28,18.28-2.96-2.96,21-21c.17-.17.46-.05.46.19Z"/><path class="cls-1" d="m1027.03,1070.75h41.23c.33,0,.59.27.59.59v3.01c0,.33-.27.59-.59.59h-41.23v-4.19h0Z" transform="translate(-24.9 2120.79) rotate(-90)"/><path class="cls-1" d="m1029.45,1074.29v4.98c0,.2.08.38.22.52l18.28,18.28,2.96-2.96-21-21c-.17-.17-.46-.05-.46.19Z"/><path class="cls-1" d="m1066.44,1074.29v4.98c0,.2-.08.38-.22.52l-18.28,18.28-2.96-2.96,21-21c.17-.17.46-.05.46.19Z"/><path class="cls-1" d="m1017.92,132.27c0-17.95,2.8-31.43,8.44-40.42,5.62-8.98,11.81-13.47,18.58-13.47s12.94,4.51,18.58,13.5c5.62,9.01,8.44,22.51,8.44,40.51v16.32c0,4.12-.47,9.94-1.41,17.45-.93,7.51-2.33,18-4.2,31.5s-4.66,32.82-8.38,57.96c-3.74,25.14-8.59,57.67-14.56,97.62-5.96,39.96-13.43,90.14-22.38,150.53-.04.24-.07.48-.11.71h58.51c2.29,0,4.55.12,6.79.31,1.12-7.19,2.21-14.2,3.28-21.04,8.64-55.32,16.04-100.79,22.24-136.43,6.19-35.64,11.35-64.62,15.48-86.93,4.12-22.32,7.32-39.47,9.57-51.49,2.26-12,3.95-21.77,5.07-29.28s1.78-14.45,1.97-20.83c.18-6.38.28-15.19.28-26.46,0-24.01-4.9-43.99-14.66-59.95-9.78-15.95-21.99-27.95-36.65-36.03s-30.63-12.11-47.88-12.11-33.22,4.04-47.85,12.08c-14.63,8.06-26.83,20.05-36.59,35.97-9.76,15.92-14.63,35.86-14.63,59.83v161.82h72.05v-161.67Z"/><rect class="cls-1" x="1773.54" y="911.19" width="72.17" height="103.52"/><path class="cls-1" d="m604.93,881.19h32.78l4.11-100.08h53.56l3.86,100.08h69.9l-46.7-838.89h-108.26l-45.8,822.82c9.09,9.87,22.1,16.07,36.55,16.07Zm45.34-370.42l18.04-432.39,18.04,432.39,9.02,216.2h-53.56l8.46-216.2Z"/><path class="cls-1" d="m1486.27,132.27c0-17.95,2.8-31.43,8.44-40.42,5.62-8.98,11.81-13.47,18.58-13.47s12.94,4.51,18.58,13.5c5.62,9.01,8.44,22.51,8.44,40.51v16.32c0,4.12-.47,9.94-1.41,17.45-.93,7.51-2.33,18-4.2,31.5s-4.66,32.82-8.38,57.96c-3.74,25.14-8.59,57.67-14.56,97.62-.1.69-.21,1.4-.31,2.1h21.12c16.21,0,31.3,4.88,43.9,13.23,1.26-7.43,2.47-14.51,3.64-21.24,6.19-35.64,11.35-64.62,15.48-86.93,4.12-22.32,7.32-39.47,9.57-51.49,2.26-12,3.95-21.77,5.07-29.28s1.78-14.45,1.97-20.83c.18-6.38.28-15.19.28-26.46,0-24.01-4.9-43.99-14.66-59.95-9.78-15.95-21.99-27.95-36.65-36.03s-30.63-12.11-47.88-12.11-33.22,4.04-47.85,12.08c-14.63,8.06-26.83,20.05-36.59,35.97-9.76,15.92-14.63,35.86-14.63,59.83v161.82h72.05v-161.67Z"/><polygon class="cls-1" points="1773.54 881.19 1845.71 881.19 1845.71 382.26 1773.54 382.26 1773.54 749.76 1720.36 749.76 1756.44 42.29 1684.27 42.29 1648.19 814.34 1773.54 814.34 1773.54 881.19"/><polygon class="cls-1" points="434.11 332.14 434.11 96.42 523.38 96.42 523.38 42.29 361.94 42.29 361.94 332.14 434.11 332.14"/><path class="cls-1" d="m1366.91,696.62h-60.77v230.77c0,13.59-2.82,23.8-8.46,30.6-5.64,6.8-11.84,10.19-18.61,10.19s-12.97-3.4-18.61-10.19c-5.64-6.8-8.46-17-8.46-30.6v-230.77h-43.19c-10.22,0-19.99-1.96-28.98-5.48v233.56c0,18.01,2.82,33.77,8.46,47.27s13.15,24.76,22.55,33.77c9.39,8.99,20.02,15.74,31.86,20.25,11.84,4.5,23.96,6.75,36.37,6.75s24.53-2.26,36.37-6.75c11.84-4.51,22.45-11.26,31.86-20.25,9.39-9.01,16.92-20.27,22.55-33.77,5.64-13.5,8.46-29.26,8.46-47.27v-228.91c-3.72.54-7.53.83-11.4.83Z"/><path class="cls-1" d="m1208.82,666.62h43.19V129.62c0-13.59,2.82-23.79,8.46-30.58s11.84-10.21,18.61-10.21,12.97,3.41,18.61,10.21,8.46,16.99,8.46,30.58v537h60.77c3.92,0,7.74-.47,11.4-1.33V132.3c0-18-2.82-33.76-8.46-47.26-5.64-13.5-13.16-24.76-22.55-33.77-9.41-9.01-20.02-15.76-31.86-20.27-11.84-4.5-23.96-6.75-36.37-6.75s-24.53,2.26-36.37,6.75c-11.84,4.51-22.46,11.26-31.86,20.27-9.41,9.01-16.92,20.27-22.55,33.77s-8.46,29.26-8.46,47.26v524.95c8.16,5.89,18.17,9.37,28.98,9.37Z"/><polygon class="cls-1" points="700.41 911.19 704.4 1014.71 776.57 1014.71 770.81 911.19 700.41 911.19"/><path class="cls-1" d="m1058.83,683.76c8.41-55.48,16.01-105.22,22.8-149.23-.73-.03-1.45-.06-2.19-.06h-62.96c-7.95,53.67-17.06,115.46-27.35,185.37-12.32,83.66-26.49,181.94-42.53,294.86h197.52v-54.13h-126.11c15.37-106.52,28.98-198.8,40.8-276.82Z"/><path class="cls-1" d="m145.9,205.5v-109.07c13.53,0,24.9.19,34.11.56,9.2.39,16.63,1.69,22.27,3.95s9.67,5.82,12.12,10.68c2.43,4.87,3.67,11.81,3.67,20.8v183.65c9.09,9.88,22.11,16.08,36.56,16.08h35.61v-199.83c0-22.49-3.29-39.84-9.87-52.04-6.59-12.2-16.07-21.1-28.47-26.72-12.4-5.62-27.54-8.9-45.39-9.85-17.86-.93-38.06-1.41-60.61-1.41h-72.17v160.48h51.53c7.14,0,14.06.96,20.64,2.73Z"/><path class="cls-1" d="m604.93,911.19c-13.98,0-27.12-3.63-38.55-9.98l-6.32,113.5h72.17l4.25-103.52h-31.55Z"/><polygon class="cls-1" points="434.11 362.14 361.94 362.14 361.94 1014.71 434.11 1014.71 434.11 510.46 505.33 510.46 505.33 456.33 434.11 456.33 434.11 362.14"/><path class="cls-1" d="m1527.18,683.76c11.83-78.02,22.05-144.68,30.68-200.01,4.63-29.68,8.91-56.52,12.84-80.54-9.12-10.92-22.83-17.88-38.14-17.88h-25.59c-5.03,33.76-10.89,73.23-17.59,118.43-8.96,60.41-19.59,132.43-31.9,216.08-12.32,83.66-26.49,181.94-42.53,294.86h197.52v-54.13h-126.11c15.37-106.52,28.98-198.8,40.8-276.82Z"/><path class="cls-1" d="m276.71,480.06c9.02-9.75,13.53-23.62,13.53-41.64v-76.28h-35.61c-13.17,0-25.6-3.23-36.56-8.92v85.15c0,4.51-.1,8.92-.28,13.22-.19,4.32-.85,8.16-1.97,11.53-1.13,3.38-2.92,6.1-5.36,8.16-2.45,2.06-5.92,3.09-10.43,3.09h-54.13v-237.09c-6.29-2.89-13.28-4.51-20.64-4.51h-51.53v781.94h72.17c18.04,0,35.7-.46,53-1.41,17.29-.93,32.7-4.21,46.23-9.85,13.53-5.62,24.42-14.53,32.7-26.72,8.26-12.2,12.4-29.54,12.4-52.07v-360.19c0-18-4.51-31.87-13.53-41.64-9.02-9.76-22.55-16.71-40.6-20.83,18.04-4.87,31.57-12.18,40.6-21.95Zm-58.64,444.51c0,9.01-1.23,15.95-3.67,20.82-2.45,4.88-6.48,8.44-12.12,10.7s-13.07,3.56-22.27,3.93c-9.21.39-20.58.56-34.11.56v-432.08h54.13c4.51,0,7.98,1.04,10.43,3.1,2.43,2.06,4.23,4.78,5.36,8.16s1.78,7.23,1.97,11.53c.18,4.32.28,8.72.28,13.22v360.06Z"/><circle class="cls-1" cx="540.25" cy="600.51" r="15.93"/><path class="cls-1" d="m965.57,535.41c-8.78,0-15.93-7.14-15.93-15.93s7.14-15.93,15.93-15.93,15.93,7.14,15.93,15.93-7.14,15.93-15.93,15.93Z"/><path class="cls-1" d="m1596.56,793.68c-8.78,0-15.93-7.14-15.93-15.93s7.14-15.93,15.93-15.93,15.93,7.14,15.93,15.93-7.14,15.93-15.93,15.93Z"/><path class="cls-1" d="m546.25,615.26v-29.5c-1.85-.75-3.88-1.18-6-1.18s-4.15.42-6,1.18v29.5c1.85.75,3.88,1.18,6,1.18s4.15-.42,6-1.18Z"/><path class="cls-1" d="m534.25,411.83v162.44c1.93-.44,3.94-.68,6-.68s4.07.24,6,.68v-162.44c0-38.98-31.71-70.69-70.69-70.69h-220.94c-32.36,0-58.69-26.33-58.69-58.69,0-38.98-31.71-70.69-70.69-70.69h-51.53v12h51.53c32.36,0,58.69,26.33,58.69,58.69,0,38.98,31.71,70.69,70.69,70.69h220.94c32.36,0,58.69,26.33,58.69,58.69Z"/><path class="cls-1" d="m938.64,519.48c0-2.06.24-4.07.68-6h-5.55c-38.98,0-70.69,31.71-70.69,70.69v247.33c0,32.36-26.33,58.69-58.69,58.69h-199.47c-32.36,0-58.69-26.33-58.69-58.69v-204.75c-1.93.44-3.94.68-6,.68s-4.07-.24-6-.68v204.75c0,38.98,31.71,70.69,70.69,70.69h199.47c38.98,0,70.69-31.71,70.69-70.69v-247.33c0-32.36,26.33-58.69,58.69-58.69h5.55c-.44-1.93-.68-3.94-.68-6Z"/><path class="cls-1" d="m1603.26,792.18v-28.87c-2.04-.95-4.3-1.49-6.7-1.49-1.86,0-3.64.34-5.3.92v30.01c1.66.59,3.44.92,5.3.92,2.4,0,4.66-.54,6.7-1.49Z"/><path class="cls-1" d="m1661.94,890.19c-32.36,0-58.69-26.33-58.69-58.69v-27.67c-2.14.55-4.39.84-6.7.84-1.81,0-3.59-.18-5.3-.53v27.35c0,38.98,31.71,70.69,70.69,70.69h185.82v-12h-185.82Z"/><path class="cls-1" d="m1591.26,435.02v316.33c1.71-.34,3.49-.53,5.3-.53,2.31,0,4.56.29,6.7.84v-316.65c0-38.98-31.71-70.69-70.69-70.69h-36.29c-38.98,0-70.69,31.71-70.69,70.69v181.91c0,32.36-26.33,58.69-58.69,58.69h-158.09c-32.36,0-58.69-26.33-58.69-58.69v-32.77c0-38.98-31.71-70.69-70.69-70.69h-87.63c.44,1.93.68,3.94.68,6s-.24,4.07-.68,6h87.63c32.36,0,58.69,26.33,58.69,58.69v32.77c0,38.98,31.71,70.69,70.69,70.69h158.09c38.98,0,70.69-31.71,70.69-70.69v-181.91c0-32.36,26.33-58.69,58.69-58.69h36.29c32.36,0,58.69,26.33,58.69,58.69Z"/></svg>