<?xml version="1.0" encoding="UTF-8"?><svg id="Layer_1" xmlns="http://www.w3.org/2000/svg" viewBox="0 0 1920 1118.54"><defs><style>.cls-1{fill:#fcf0ca;stroke-width:0px;}</style></defs><path class="cls-1" d="m290.24,924.66c0,22.52-4.14,39.87-12.4,52.07-8.28,12.2-19.17,21.1-32.7,26.72-13.53,5.64-28.95,8.92-46.23,9.85-17.3.95-34.96,1.41-53,1.41h-69.75c-1.34,0-2.42-1.08-2.42-2.42V44.71c0-1.34,1.08-2.42,2.42-2.42h69.75c22.55,0,42.75.47,60.61,1.41,17.85.95,32.98,4.23,45.39,9.85s21.89,14.53,28.47,26.72c6.57,12.2,9.87,29.54,9.87,52.04v306.11c0,18.01-4.51,31.89-13.53,41.64-7.62,8.25-18.46,14.75-32.52,19.5-2.21.75-2.16,3.92.08,4.59,14.02,4.22,24.84,10.45,32.44,18.68,9.02,9.76,13.53,23.64,13.53,41.64v360.19Zm-144.34-452.7c0,1.34,1.08,2.42,2.42,2.42h51.71c4.51,0,7.98-1.02,10.43-3.09,2.43-2.06,4.23-4.78,5.36-8.16,1.13-3.37,1.78-7.21,1.97-11.53.18-4.3.28-8.71.28-13.22V132.42c0-8.99-1.23-15.94-3.66-20.8-2.45-4.87-6.48-8.43-12.12-10.68s-13.07-3.56-22.27-3.95c-8.66-.35-19.22-.54-31.69-.56-1.34,0-2.43,1.08-2.43,2.42v373.11Zm72.17,92.56c0-4.5-.1-8.9-.28-13.22-.19-4.3-.85-8.15-1.97-11.53s-2.92-6.1-5.36-8.16c-2.45-2.06-5.92-3.1-10.43-3.1h-51.71c-1.34,0-2.42,1.08-2.42,2.42v427.24c0,1.34,1.09,2.42,2.43,2.42,12.47-.02,23.03-.2,31.69-.56,9.2-.37,16.63-1.68,22.27-3.93s9.67-5.82,12.12-10.7c2.43-4.87,3.66-11.81,3.66-20.82v-360.06Z"/><path class="cls-1" d="m520.96,96.42h-84.43c-1.34,0-2.42,1.08-2.42,2.42v355.07c0,1.34,1.08,2.42,2.42,2.42h66.38c1.34,0,2.42,1.08,2.42,2.42v49.29c0,1.34-1.08,2.42-2.42,2.42h-66.38c-1.34,0-2.42,1.08-2.42,2.42v499.41c0,1.34-1.08,2.42-2.42,2.42h-67.33c-1.34,0-2.42-1.08-2.42-2.42V44.71c0-1.34,1.08-2.42,2.42-2.42h156.6c1.34,0,2.42,1.08,2.42,2.42v49.29c0,1.34-1.08,2.42-2.42,2.42Z"/><path class="cls-1" d="m774.02,1014.71h-67.29c-1.3,0-2.37-1.03-2.42-2.33l-8.84-228.96c-.05-1.3-1.12-2.33-2.42-2.33h-48.92c-1.3,0-2.36,1.02-2.42,2.32l-9.39,228.97c-.05,1.3-1.12,2.32-2.42,2.32h-67.29c-1.39,0-2.49-1.17-2.41-2.55l53.86-967.58c.07-1.28,1.13-2.28,2.41-2.28h103.68c1.28,0,2.34,1,2.41,2.28l53.86,967.58c.08,1.39-1.03,2.55-2.41,2.55Zm-87.66-503.94l-15.63-374.48c-.13-3.09-4.7-3.09-4.83,0l-15.63,374.48-8.36,213.69c-.05,1.37,1.04,2.51,2.42,2.51h48.53c1.38,0,2.47-1.15,2.42-2.52l-8.92-213.68Z"/><path class="cls-1" d="m945.87,132.12c0-23.96,4.87-43.91,14.63-59.83,9.76-15.92,21.96-27.91,36.59-35.97,14.63-8.04,30.58-12.08,47.85-12.08s33.22,4.04,47.88,12.11c14.66,8.07,26.87,20.08,36.65,36.03,9.76,15.95,14.66,35.94,14.66,59.94,0,11.26-.1,20.08-.28,26.46-.19,6.38-.85,13.32-1.97,20.83s-2.82,17.27-5.07,29.28c-2.26,12.02-5.45,29.17-9.57,51.49-4.12,22.32-9.29,51.29-15.48,86.94-6.2,35.64-13.61,81.12-22.24,136.43-8.64,55.33-18.86,122-30.68,200.01-11.72,77.34-25.2,168.69-40.4,274.04-.21,1.46.92,2.77,2.39,2.77h120.9c1.34,0,2.42,1.08,2.42,2.42v49.29c0,1.34-1.08,2.42-2.42,2.42h-192.32c-1.47,0-2.6-1.31-2.39-2.77,15.88-111.76,29.92-209.12,42.13-292.09s22.94-155.68,31.9-216.08c8.95-60.39,16.41-110.57,22.38-150.53,5.96-39.94,10.82-72.48,14.56-97.62,3.72-25.14,6.51-44.45,8.38-57.96s3.26-23.99,4.2-31.5c.93-7.51,1.41-13.32,1.41-17.45v-16.32c0-18-2.82-31.5-8.44-40.51-5.64-8.99-11.83-13.5-18.58-13.5s-12.95,4.5-18.58,13.47c-5.64,8.99-8.44,22.46-8.44,40.42v159.25c0,1.34-1.08,2.42-2.42,2.42h-67.22c-1.34,0-2.42-1.08-2.42-2.42v-159.4Z"/><path class="cls-1" d="m1378.31,924.7c0,18.01-2.82,33.77-8.46,47.27s-13.16,24.76-22.55,33.77c-9.41,8.99-20.02,15.74-31.86,20.25-11.84,4.5-23.96,6.75-36.37,6.75s-24.53-2.26-36.37-6.75c-11.84-4.51-22.46-11.26-31.86-20.25-9.41-9.01-16.92-20.27-22.55-33.77-5.64-13.5-8.46-29.26-8.46-47.27V132.3c0-18,2.82-33.76,8.46-47.26,5.64-13.5,13.15-24.76,22.55-33.77,9.39-9.01,20.02-15.76,31.86-20.27,11.84-4.5,23.96-6.75,36.37-6.75s24.53,2.26,36.37,6.75c11.84,4.51,22.45,11.26,31.86,20.27,9.39,9.01,16.92,20.27,22.55,33.77s8.46,29.26,8.46,47.26v792.4Zm-72.17-795.09c0-13.59-2.82-23.79-8.46-30.58-5.64-6.8-11.84-10.21-18.61-10.21s-12.97,3.41-18.61,10.21c-5.64,6.8-8.46,16.99-8.46,30.58v797.77c0,13.59,2.82,23.8,8.46,30.6,5.64,6.8,11.84,10.19,18.61,10.19s12.97-3.4,18.61-10.19,8.46-17,8.46-30.6V129.62Z"/><path class="cls-1" d="m1414.22,132.12c0-23.96,4.87-43.91,14.63-59.83,9.76-15.92,21.96-27.91,36.59-35.97,14.63-8.04,30.58-12.08,47.85-12.08s33.22,4.04,47.88,12.11,26.87,20.08,36.65,36.03c9.76,15.95,14.66,35.94,14.66,59.94,0,11.26-.1,20.08-.28,26.46-.19,6.38-.85,13.32-1.97,20.83s-2.82,17.27-5.07,29.28c-2.26,12.02-5.45,29.17-9.57,51.49-4.12,22.32-9.29,51.29-15.48,86.94-6.2,35.64-13.61,81.12-22.24,136.43-8.64,55.33-18.86,122-30.68,200.01-11.72,77.34-25.2,168.69-40.4,274.04-.21,1.46.92,2.77,2.39,2.77h120.9c1.34,0,2.42,1.08,2.42,2.42v49.29c0,1.34-1.08,2.42-2.42,2.42h-192.32c-1.47,0-2.6-1.31-2.39-2.77,15.88-111.76,29.92-209.12,42.13-292.09s22.94-155.68,31.9-216.08c8.95-60.39,16.41-110.57,22.38-150.53,5.96-39.94,10.82-72.48,14.56-97.62,3.72-25.14,6.51-44.45,8.38-57.96s3.26-23.99,4.2-31.5c.93-7.51,1.41-13.32,1.41-17.45v-16.32c0-18-2.82-31.5-8.44-40.51-5.64-8.99-11.83-13.5-18.58-13.5s-12.95,4.5-18.58,13.47c-5.64,8.99-8.44,22.46-8.44,40.42v159.25c0,1.34-1.08,2.42-2.42,2.42h-67.22c-1.34,0-2.42-1.08-2.42-2.42v-159.4Z"/><path class="cls-1" d="m1845.71,384.68v627.61c0,1.34-1.08,2.42-2.42,2.42h-67.33c-1.34,0-2.42-1.08-2.42-2.42v-195.53c0-1.34-1.08-2.42-2.42-2.42h-120.4c-1.38,0-2.48-1.15-2.42-2.53l35.86-767.21c.06-1.29,1.12-2.31,2.42-2.31h67.32c1.38,0,2.49,1.16,2.42,2.54l-35.83,702.39c-.07,1.38,1.03,2.54,2.42,2.54h48.21c1.34,0,2.42-1.08,2.42-2.42v-362.67c0-1.34,1.08-2.42,2.42-2.42h67.33c1.34,0,2.42,1.08,2.42,2.42Z"/><path class="cls-1" d="m939.09,1070.75h41.23c.33,0,.59.27.59.59v3.01c0,.33-.27.59-.59.59h-41.23v-4.19h0Z" transform="translate(-112.84 2032.84) rotate(-90)"/><path class="cls-1" d="m941.51,1074.29v4.98c0,.2.08.38.22.52l18.28,18.28,2.96-2.96-21-21c-.17-.17-.46-.05-.46.19Z"/><path class="cls-1" d="m978.49,1074.29v4.98c0,.2-.08.38-.22.52l-18.28,18.28-2.96-2.96,21-21c.17-.17.46-.05.46.19Z"/><path class="cls-1" d="m851.14,1070.75h41.23c.33,0,.59.27.59.59v3.01c0,.33-.27.59-.59.59h-41.23v-4.19h0Z" transform="translate(-200.79 1944.9) rotate(-90)"/><path class="cls-1" d="m853.56,1074.29v4.98c0,.2.08.38.22.52l18.28,18.28,2.96-2.96-21-21c-.17-.17-.46-.05-.46.19Z"/><path class="cls-1" d="m890.55,1074.29v4.98c0,.2-.08.38-.22.52l-18.28,18.28-2.96-2.96,21-21c.17-.17.46-.05.46.19Z"/><path class="cls-1" d="m1027.03,1070.75h41.23c.33,0,.59.27.59.59v3.01c0,.33-.27.59-.59.59h-41.23v-4.19h0Z" transform="translate(-24.9 2120.79) rotate(-90)"/><path class="cls-1" d="m1029.45,1074.29v4.98c0,.2.08.38.22.52l18.28,18.28,2.96-2.96-21-21c-.17-.17-.46-.05-.46.19Z"/><path class="cls-1" d="m1066.44,1074.29v4.98c0,.2-.08.38-.22.52l-18.28,18.28-2.96-2.96,21-21c.17-.17.46-.05.46.19Z"/></svg>